<?xml version="1.0" encoding="utf-8"?>
<!-- Generator: Adobe Illustrator 21.1.0, SVG Export Plug-In . SVG Version: 6.00 Build 0)  -->
<svg version="1.1" id="Layer_1" xmlns="http://www.w3.org/2000/svg" xmlns:xlink="http://www.w3.org/1999/xlink" x="0px" y="0px"
	 viewBox="0 0 1076 279" style="enable-background:new 0 0 1076 279;" xml:space="preserve">
<style type="text/css">
	.st0{opacity:0.6;fill:#9C839B;enable-background:new    ;}
	.st1{fill:url(#SVGID_1_);}
	.st2{fill:#FFFFFF;}
	.st3{fill:#9C839B;}
</style>
<circle class="st0" cx="107.1" cy="139.6" r="104.6"/>
<circle class="st0" cx="211.7" cy="139.6" r="86.3"/>
<circle class="st0" cx="322.4" cy="139.6" r="135.1"/>
<circle class="st0" cx="417.8" cy="138.6" r="76.2"/>
<linearGradient id="SVGID_1_" gradientUnits="userSpaceOnUse" x1="51.1075" y1="251.7381" x2="440.2125" y2="27.0884" gradientTransform="matrix(1 0 0 -1 0 279.28)">
	<stop  offset="0" style="stop-color:#9C839B"/>
	<stop  offset="0.8973" style="stop-color:#9C839B;stop-opacity:0.1027"/>
	<stop  offset="1" style="stop-color:#9C839B;stop-opacity:0"/>
</linearGradient>
<path class="st1" d="M494,138.6c0-36.3-25.4-66.7-59.5-74.3c-24.3-36-65.4-59.8-112.1-59.8c-41.9,0-79.3,19.1-104.1,49
	c-2.2-0.2-4.4-0.3-6.6-0.3c-12.7,0-24.8,2.8-35.6,7.7c-19-16.7-44.1-26.6-71.6-25.9C48.6,36.4,3.3,82.2,2.5,138.1
	c-0.8,58.4,46.3,106.1,104.6,106.1c26.4,0,50.6-9.8,69-26c10.9,4.9,22.9,7.7,35.6,7.7c2.2,0,4.4-0.1,6.6-0.3
	c24.8,29.9,62.2,49,104.1,49c47.7,0,89.7-24.7,113.7-62.1C469.3,204.4,494,174.4,494,138.6z"/>
<g>
	<path class="st2" d="M135.3,108.9v5.6c-8-4.3-15.9-6.4-23.6-6.4c-8.2,0-15.1,2.8-20.6,8.4s-8.3,12.6-8.3,20.9
		c0,8.5,2.8,15.4,8.3,20.9s12.6,8.2,21.3,8.2c7.2,0,15-2.3,23.5-6.8v5.3c-7.8,4.1-15.6,6.2-23.4,6.2c-10.1,0-18.5-3.2-25.2-9.7
		c-6.7-6.5-10.1-14.5-10.1-24.1c0-9.7,3.4-17.8,10.3-24.3s15-9.8,24.5-9.8C119.5,103.4,127.3,105.2,135.3,108.9z"/>
	<path class="st2" d="M212,103.4c9.8,0,18.1,3.3,24.9,9.9c6.8,6.6,10.2,14.6,10.2,24.1c0,9.4-3.4,17.5-10.2,24
		c-6.8,6.6-15.1,9.9-24.9,9.9c-9.8,0-18-3.3-24.8-9.9c-6.8-6.6-10.2-14.6-10.2-24c0-9.5,3.4-17.5,10.2-24.1
		C194,106.7,202.3,103.4,212,103.4z M212.2,166.5c8.2,0,15.2-2.8,20.9-8.5c5.7-5.6,8.5-12.5,8.5-20.7s-2.8-15.1-8.5-20.8
		c-5.7-5.6-12.6-8.5-20.9-8.5c-8.3,0-15.3,2.8-21,8.5c-5.7,5.6-8.6,12.6-8.6,20.8s2.9,15.1,8.6,20.7
		C197,163.7,204,166.5,212.2,166.5z"/>
	<path class="st2" d="M293.6,104.3h23.2c11.7,0,20.7,3.1,26.8,9.2c6.2,6.2,9.3,14.1,9.3,23.9c0,9.6-3.1,17.5-9.2,23.7
		s-14.8,9.4-26,9.4h-24.1L293.6,104.3L293.6,104.3z M298.8,108.5v57.6h18.7c8.6,0,15.7-2.6,21.4-7.9c5.7-5.3,8.5-12.2,8.5-20.9
		c0-8.5-2.8-15.4-8.4-20.8s-12.9-8.1-21.8-8.1L298.8,108.5L298.8,108.5z"/>
	<path class="st2" d="M404.5,104.3v61.9h32.7v4.3h-37.8v-66.2L404.5,104.3L404.5,104.3z"/>
</g>
<g>
	<path class="st3" d="M520.4,73.8h9.7c5.1,0,9,1.1,11.6,3.2s3.9,5.1,3.9,8.8c0,4.5-2.2,8-6.7,10.4c7.2,1.6,10.8,5.5,10.8,11.8
		c0,3.8-1.4,6.8-4.2,9s-6.6,3.4-11.4,3.4h-13.7V73.8z M524,76.9v18.6h5c8.5,0,12.7-3.1,12.7-9.3c0-6.2-4.3-9.3-12.9-9.3H524z
		 M524,98.5v19h9.7c4,0,7-0.9,9.1-2.6c2.1-1.7,3.1-4,3.1-6.9c0-6.4-4.6-9.6-13.8-9.6H524z"/>
	<path class="st3" d="M582.1,73.8v3h-21.8v18.7h21.3v3h-21.3v18.9h22.4v3h-26V73.8H582.1z"/>
	<path class="st3" d="M608.6,73.5l21.6,47h-3.8l-7.4-16.1h-22.8l-7.4,16.1H585l21.6-47H608.6z M617.6,101.4l-10.1-22l-10,22H617.6z"
		/>
	<path class="st3" d="M662.4,73.8v3h-17.5v43.6h-3.6V76.9h-17.5v-3H662.4z"/>
	<path class="st3" d="M668.1,73.8h12c5,0,8.8,1.1,11.5,3.3c2.6,2.2,4,5.1,4,8.8c0,5.4-3,9.2-8.9,11.4c1.5,0.7,3.6,3.1,6.2,7.1
		l10.6,16.1h-4.3l-8.1-12.8c-2.7-4.3-4.8-6.9-6.3-8s-3.7-1.6-6.6-1.6h-6.3v22.4h-3.6V73.8z M671.7,76.9v18.3h7.7c3.9,0,7-0.8,9-2.4
		c2.1-1.6,3.1-3.8,3.1-6.8c0-2.9-1.1-5.1-3.2-6.7c-2.1-1.6-5.2-2.4-9.1-2.4H671.7z"/>
	<path class="st3" d="M710.9,73.8v46.6h-3.6V73.8H710.9z"/>
	<path class="st3" d="M725.4,73.8v46.6c0,5.1-1,8.7-2.9,10.7c-1.9,2-4.2,2.9-6.9,2.9c-0.6,0-1.3,0-2.2-0.1l-0.3-3.4
		c0.8,0.2,1.5,0.3,2.1,0.3c4.4,0,6.5-3.1,6.5-9.4V73.8H725.4z"/>
	<path class="st3" d="M757.7,76.2v4c-4.1-2.4-7.5-3.6-10.5-3.6c-2.8,0-5.1,0.9-7,2.6s-2.8,3.8-2.8,6.3c0,1.8,0.6,3.4,1.7,4.9
		c1.1,1.4,3.4,2.8,7,4.2c3.5,1.3,6.1,2.4,7.7,3.3c1.6,0.9,3,2.2,4.1,3.9c1.1,1.7,1.7,3.9,1.7,6.6c0,3.6-1.3,6.6-3.9,9.1
		s-5.8,3.7-9.6,3.7c-3.9,0-7.9-1.4-12-4.1v-4.2c4.5,3.3,8.4,5,11.8,5c2.8,0,5.1-0.9,7-2.7c1.9-1.8,2.9-4,2.9-6.6
		c0-2-0.6-3.8-1.8-5.4s-3.6-3.1-7.2-4.5s-6.2-2.5-7.7-3.3c-1.5-0.8-2.9-2.1-3.9-3.6c-1.1-1.6-1.6-3.6-1.6-6.1c0-3.4,1.3-6.3,3.9-8.8
		s5.8-3.6,9.5-3.6C750.6,73.2,754.2,74.2,757.7,76.2z"/>
	<path class="st3" d="M523.9,155.9v46.6h-3.6v-46.6H523.9z"/>
	<path class="st3" d="M576.5,155.9v46.6h-3l-35.5-40.8v40.8h-3.6v-46.6h3.1l35.4,40.8v-40.8H576.5z"/>
	<path class="st3" d="M620.8,155.9v3h-17.5v43.6h-3.6v-43.6h-17.5v-3H620.8z"/>
	<path class="st3" d="M652,155.9v3h-21.8v18.7h21.3v3h-21.3v18.9h22.4v3h-26v-46.6H652z"/>
	<path class="st3" d="M660,155.9h12c5,0,8.8,1.1,11.5,3.3s4,5.1,4,8.8c0,5.4-3,9.2-8.9,11.4c1.5,0.7,3.6,3.1,6.2,7.1l10.6,16.1H691
		l-8.1-12.8c-2.7-4.3-4.8-6.9-6.3-8c-1.5-1.1-3.7-1.6-6.6-1.6h-6.3v22.4H660V155.9z M663.6,158.9v18.3h7.7c3.9,0,7-0.8,9-2.4
		c2.1-1.6,3.1-3.8,3.1-6.8c0-2.9-1.1-5.1-3.2-6.7c-2.1-1.6-5.2-2.4-9.1-2.4H663.6z"/>
	<path class="st3" d="M741.2,155.9v46.6h-3l-35.5-40.8v40.8h-3.6v-46.6h3.1l35.4,40.8v-40.8H741.2z"/>
	<path class="st3" d="M770.3,155.6l21.6,47h-3.8l-7.4-16.1h-22.8l-7.4,16.1h-3.8l21.6-47H770.3z M779.4,183.4l-10.1-22l-10,22H779.4
		z"/>
	<path class="st3" d="M824.2,155.9v3h-17.5v43.6h-3.6v-43.6h-17.5v-3H824.2z"/>
	<path class="st3" d="M833.4,155.9v46.6h-3.6v-46.6H833.4z"/>
	<path class="st3" d="M866.8,155.3c6.9,0,12.8,2.3,17.5,7c4.8,4.6,7.2,10.3,7.2,17c0,6.7-2.4,12.3-7.2,16.9c-4.8,4.6-10.6,7-17.5,7
		c-6.9,0-12.7-2.3-17.5-7c-4.8-4.6-7.2-10.3-7.2-16.9c0-6.7,2.4-12.3,7.2-17C854.1,157.6,860,155.3,866.8,155.3z M867,199.8
		c5.8,0,10.7-2,14.7-6c4-4,6-8.8,6-14.6c0-5.8-2-10.7-6-14.6s-8.9-6-14.7-6c-5.8,0-10.8,2-14.8,6s-6.1,8.9-6.1,14.6
		c0,5.8,2,10.6,6.1,14.6C856.2,197.8,861.1,199.8,867,199.8z"/>
	<path class="st3" d="M942.4,155.9v46.6h-3L904,161.8v40.8h-3.6v-46.6h3.1l35.4,40.8v-40.8H942.4z"/>
	<path class="st3" d="M971.6,155.6l21.6,47h-3.8l-7.4-16.1h-22.8l-7.4,16.1H948l21.6-47H971.6z M980.6,183.4l-10.1-22l-10,22H980.6z
		"/>
	<path class="st3" d="M1017.2,155.6l21.6,47h-3.8l-7.4-16.1h-22.8l-7.4,16.1h-3.8l21.6-47H1017.2z M1026.2,183.4l-10.1-22l-10,22
		H1026.2z"/>
	<path class="st3" d="M1048,155.9v43.6h23.1v3h-26.7v-46.6H1048z"/>
</g>
</svg>
