<?xml version="1.0" encoding="utf-8"?>
<!-- Generator: Adobe Illustrator 21.0.2, SVG Export Plug-In . SVG Version: 6.00 Build 0)  -->
<svg version="1.1" id="Layer_1" xmlns="http://www.w3.org/2000/svg" xmlns:xlink="http://www.w3.org/1999/xlink" x="0px" y="0px"
	 viewBox="0 0 1076 279" style="enable-background:new 0 0 1076 279;" xml:space="preserve">
<style type="text/css">
	.st0{opacity:0.6;fill-rule:evenodd;clip-rule:evenodd;fill:#9C839B;}
	.st1{fill-rule:evenodd;clip-rule:evenodd;fill:url(#SVGID_1_);}
	.st2{fill:#FFFFFF;}
	.st3{fill:#9C839B;}
</style>
<circle class="st0" cx="107.1" cy="139.6" r="104.6"/>
<circle class="st0" cx="211.7" cy="139.6" r="86.3"/>
<circle class="st0" cx="322.4" cy="139.6" r="135.1"/>
<circle class="st0" cx="417.8" cy="138.6" r="76.2"/>
<linearGradient id="SVGID_1_" gradientUnits="userSpaceOnUse" x1="51.1107" y1="27.5256" x2="440.2134" y2="252.1741">
	<stop  offset="0" style="stop-color:#9C839B"/>
	<stop  offset="0.8973" style="stop-color:#9C839B;stop-opacity:0.1027"/>
	<stop  offset="1" style="stop-color:#9C839B;stop-opacity:0"/>
</linearGradient>
<path class="st1" d="M494,138.6c0-36.3-25.4-66.7-59.5-74.3c-24.3-36-65.4-59.8-112.1-59.8c-41.9,0-79.3,19.1-104.1,49
	c-2.2-0.2-4.4-0.3-6.6-0.3c-12.7,0-24.8,2.8-35.6,7.7c-19-16.7-44.1-26.6-71.6-25.9C48.6,36.4,3.3,82.2,2.5,138.1
	c-0.8,58.4,46.3,106.1,104.6,106.1c26.4,0,50.6-9.8,69-26c10.9,4.9,22.9,7.7,35.6,7.7c2.2,0,4.4-0.1,6.6-0.3
	c24.8,29.9,62.2,49,104.1,49c47.7,0,89.7-24.7,113.7-62.1C469.3,204.4,494,174.4,494,138.6z"/>
<g>
	<path class="st2" d="M135.3,108.9v5.6c-8-4.3-15.9-6.4-23.6-6.4c-8.2,0-15.1,2.8-20.6,8.4c-5.5,5.6-8.3,12.6-8.3,20.9
		c0,8.5,2.8,15.4,8.3,20.9s12.6,8.2,21.3,8.2c7.2,0,15-2.3,23.5-6.8v5.3c-7.8,4.1-15.6,6.2-23.4,6.2c-10.1,0-18.5-3.2-25.2-9.7
		c-6.7-6.5-10.1-14.5-10.1-24.1c0-9.7,3.4-17.8,10.3-24.3s15-9.8,24.5-9.8C119.5,103.4,127.3,105.2,135.3,108.9z"/>
	<path class="st2" d="M212,103.4c9.8,0,18.1,3.3,24.9,9.9c6.8,6.6,10.2,14.6,10.2,24.1c0,9.4-3.4,17.5-10.2,24
		c-6.8,6.6-15.1,9.9-24.9,9.9c-9.8,0-18-3.3-24.8-9.9c-6.8-6.6-10.2-14.6-10.2-24c0-9.5,3.4-17.5,10.2-24.1
		C194,106.7,202.3,103.4,212,103.4z M212.2,166.5c8.2,0,15.2-2.8,20.9-8.5c5.7-5.6,8.5-12.5,8.5-20.7c0-8.2-2.8-15.1-8.5-20.8
		c-5.7-5.6-12.6-8.5-20.9-8.5c-8.3,0-15.3,2.8-21,8.5c-5.7,5.6-8.6,12.6-8.6,20.8c0,8.2,2.9,15.1,8.6,20.7
		C197,163.7,204,166.5,212.2,166.5z"/>
	<path class="st2" d="M293.6,104.3h23.2c11.7,0,20.7,3.1,26.8,9.2c6.2,6.2,9.3,14.1,9.3,23.9c0,9.6-3.1,17.5-9.2,23.7
		c-6.1,6.2-14.8,9.4-26,9.4h-24.1V104.3z M298.8,108.5v57.6h18.7c8.6,0,15.7-2.6,21.4-7.9c5.7-5.3,8.5-12.2,8.5-20.9
		c0-8.5-2.8-15.4-8.4-20.8s-12.9-8.1-21.8-8.1H298.8z"/>
	<path class="st2" d="M404.5,104.3v61.9h32.7v4.3h-37.8v-66.2H404.5z"/>
</g>
<g>
	<path class="st3" d="M554.9,104.3v4.3h-31V135h30.2v4.3h-30.2v26.9h31.7v4.3h-36.8v-66.2H554.9z"/>
	<path class="st3" d="M592.3,103.8l30.6,66.6h-5.4l-10.5-22.9h-32.4l-10.4,22.9h-5.4l30.6-66.6H592.3z M605.1,143.3l-14.3-31.2
		l-14.2,31.2H605.1z"/>
	<path class="st3" d="M662,107.6v5.6c-5.7-3.4-10.7-5.1-14.8-5.1c-4,0-7.3,1.2-10,3.6c-2.7,2.4-4,5.4-4,9c0,2.6,0.8,4.9,2.4,6.9
		s4.9,4,9.9,5.9s8.7,3.5,11,4.7c2.3,1.3,4.3,3.1,5.9,5.5c1.6,2.4,2.4,5.5,2.4,9.3c0,5.1-1.9,9.4-5.6,12.9s-8.3,5.3-13.6,5.3
		c-5.5,0-11.1-1.9-17-5.8v-6c6.4,4.7,12,7.1,16.7,7.1c3.9,0,7.2-1.3,9.9-3.8c2.7-2.5,4-5.7,4-9.4c0-2.8-0.8-5.3-2.5-7.6
		c-1.7-2.3-5.1-4.4-10.2-6.3c-5.1-2-8.8-3.5-11-4.7s-4.1-2.9-5.6-5.1c-1.5-2.2-2.3-5.1-2.3-8.6c0-4.9,1.9-9,5.6-12.4
		c3.7-3.4,8.2-5.1,13.5-5.1C651.9,103.4,657,104.8,662,107.6z"/>
	<path class="st3" d="M723.9,104.3v4.3h-24.8v61.9H694v-61.9h-24.8v-4.3H723.9z"/>
	<path class="st3" d="M732.1,104.3h13.8c7.2,0,12.7,1.5,16.4,4.5s5.6,7.2,5.6,12.6c0,6.4-3.2,11.3-9.5,14.7
		c10.2,2.2,15.3,7.8,15.3,16.8c0,5.4-2,9.6-6,12.8c-4,3.2-9.4,4.8-16.2,4.8h-19.4V104.3z M737.3,108.5v26.4h7.1c12,0,18-4.4,18-13.2
		c0-8.8-6.1-13.2-18.2-13.2H737.3z M737.3,139.2v26.9h13.7c5.7,0,9.9-1.2,12.9-3.6s4.4-5.7,4.4-9.8c0-9-6.5-13.5-19.5-13.5H737.3z"
		/>
	<path class="st3" d="M815.7,103.4c9.8,0,18.1,3.3,24.9,9.9c6.8,6.6,10.2,14.6,10.2,24.1c0,9.4-3.4,17.5-10.2,24
		c-6.8,6.6-15.1,9.9-24.9,9.9c-9.8,0-18-3.3-24.8-9.9c-6.8-6.6-10.2-14.6-10.2-24c0-9.5,3.4-17.5,10.2-24.1
		C797.7,106.7,806,103.4,815.7,103.4z M815.9,166.5c8.2,0,15.2-2.8,20.9-8.5c5.7-5.6,8.5-12.5,8.5-20.7c0-8.2-2.8-15.1-8.5-20.8
		c-5.7-5.6-12.6-8.5-20.9-8.5c-8.3,0-15.3,2.8-21,8.5c-5.7,5.6-8.6,12.6-8.6,20.8c0,8.2,2.9,15.1,8.6,20.7
		C800.7,163.7,807.7,166.5,815.9,166.5z"/>
	<path class="st3" d="M912.2,104.3h5.1v36.1c0,9.9-2.6,17.5-7.7,22.9c-5.1,5.4-11.8,8.1-20,8.1c-8.1,0-14.8-2.7-19.9-8
		c-5.1-5.3-7.7-12.6-7.7-21.8v-37.3h5.2v37.1c0,7.9,2.1,14.1,6.3,18.5c4.2,4.5,9.6,6.7,16.2,6.7c6.7,0,12.1-2.2,16.3-6.7
		c4.2-4.5,6.3-10.9,6.3-19.2V104.3z"/>
	<path class="st3" d="M990.6,104.3v66.2h-4.2l-50.3-57.8v57.8H931v-66.2h4.3l50.2,57.8v-57.8H990.6z"/>
	<path class="st3" d="M1005.9,104.3h23.2c11.7,0,20.7,3.1,26.8,9.2c6.2,6.2,9.3,14.1,9.3,23.9c0,9.6-3.1,17.5-9.2,23.7
		c-6.1,6.2-14.8,9.4-26,9.4h-24.1V104.3z M1011,108.5v57.6h18.7c8.6,0,15.7-2.6,21.4-7.9c5.7-5.3,8.5-12.2,8.5-20.9
		c0-8.5-2.8-15.4-8.4-20.8s-12.9-8.1-21.8-8.1H1011z"/>
</g>
</svg>
