<?xml version="1.0" encoding="utf-8"?>
<!-- Generator: Adobe Illustrator 21.0.2, SVG Export Plug-In . SVG Version: 6.00 Build 0)  -->
<svg version="1.1" id="Layer_1" xmlns="http://www.w3.org/2000/svg" xmlns:xlink="http://www.w3.org/1999/xlink" x="0px" y="0px"
	 viewBox="0 0 1189 279" style="enable-background:new 0 0 1189 279;" xml:space="preserve">
<style type="text/css">
	.st0{opacity:0.6;fill-rule:evenodd;clip-rule:evenodd;fill:#9C839B;}
	.st1{fill-rule:evenodd;clip-rule:evenodd;fill:url(#SVGID_1_);}
	.st2{fill:#FFFFFF;}
	.st3{fill:#9C839B;}
</style>
<circle class="st0" cx="110.6" cy="139.5" r="104.6"/>
<circle class="st0" cx="215.2" cy="139.5" r="86.3"/>
<circle class="st0" cx="325.9" cy="139.5" r="135.1"/>
<circle class="st0" cx="421.3" cy="138.5" r="76.2"/>
<linearGradient id="SVGID_1_" gradientUnits="userSpaceOnUse" x1="54.6106" y1="27.4168" x2="443.7133" y2="252.0653">
	<stop  offset="0" style="stop-color:#9C839B"/>
	<stop  offset="0.8973" style="stop-color:#9C839B;stop-opacity:0.1027"/>
	<stop  offset="1" style="stop-color:#9C839B;stop-opacity:0"/>
</linearGradient>
<path class="st1" d="M497.5,138.5c0-36.3-25.4-66.7-59.5-74.3c-24.3-36-65.4-59.8-112.1-59.8c-41.9,0-79.3,19.1-104.1,49
	c-2.2-0.2-4.4-0.3-6.6-0.3c-12.7,0-24.8,2.8-35.6,7.7c-19-16.7-44.1-26.6-71.6-25.9C52.1,36.3,6.8,82.1,6,138
	c-0.8,58.4,46.3,106.1,104.6,106.1c26.4,0,50.6-9.8,69-26c10.9,4.9,22.9,7.7,35.6,7.7c2.2,0,4.4-0.1,6.6-0.3
	c24.8,29.9,62.2,49,104.1,49c47.7,0,89.7-24.7,113.7-62.1C472.8,204.3,497.5,174.3,497.5,138.5z"/>
<g>
	<path class="st2" d="M138.8,108.8v5.6c-8-4.3-15.9-6.4-23.6-6.4c-8.2,0-15.1,2.8-20.6,8.4c-5.5,5.6-8.3,12.6-8.3,20.9
		c0,8.5,2.8,15.4,8.3,20.9c5.6,5.5,12.6,8.2,21.3,8.2c7.2,0,15-2.3,23.5-6.8v5.3c-7.8,4.1-15.6,6.2-23.4,6.2
		c-10.1,0-18.5-3.2-25.2-9.7c-6.7-6.5-10.1-14.5-10.1-24.1c0-9.7,3.4-17.8,10.3-24.3c6.9-6.5,15-9.8,24.5-9.8
		C123,103.3,130.8,105.1,138.8,108.8z"/>
	<path class="st2" d="M215.5,103.3c9.8,0,18.1,3.3,24.9,9.9c6.8,6.6,10.2,14.6,10.2,24.1c0,9.4-3.4,17.5-10.2,24
		c-6.8,6.6-15.1,9.9-24.9,9.9c-9.8,0-18-3.3-24.8-9.9c-6.8-6.6-10.2-14.6-10.2-24c0-9.5,3.4-17.5,10.2-24.1
		C197.5,106.6,205.8,103.3,215.5,103.3z M215.7,166.4c8.2,0,15.2-2.8,20.9-8.5c5.7-5.6,8.5-12.5,8.5-20.7c0-8.2-2.8-15.1-8.5-20.8
		c-5.7-5.6-12.6-8.5-20.9-8.5c-8.3,0-15.3,2.8-21,8.5c-5.7,5.6-8.6,12.6-8.6,20.8c0,8.2,2.9,15.1,8.6,20.7
		C200.5,163.6,207.5,166.4,215.7,166.4z"/>
	<path class="st2" d="M297.1,104.1h23.2c11.7,0,20.7,3.1,26.8,9.2c6.2,6.2,9.3,14.1,9.3,23.9c0,9.6-3.1,17.5-9.2,23.7
		c-6.1,6.2-14.8,9.4-26,9.4h-24.1V104.1z M302.3,108.4V166h18.7c8.6,0,15.7-2.6,21.4-7.9c5.7-5.3,8.5-12.2,8.5-20.9
		c0-8.5-2.8-15.4-8.4-20.8c-5.6-5.4-12.9-8.1-21.8-8.1H302.3z"/>
	<path class="st2" d="M408,104.1V166h32.7v4.3h-37.8v-66.2H408z"/>
</g>
<g>
	<path class="st3" d="M522.3,104.1H536c7.2,0,12.7,1.5,16.4,4.5c3.7,3,5.6,7.2,5.6,12.6c0,6.4-3.2,11.3-9.5,14.7
		c10.2,2.2,15.3,7.8,15.3,16.8c0,5.4-2,9.6-6,12.8c-4,3.2-9.4,4.8-16.2,4.8h-19.4V104.1z M527.4,108.4v26.4h7.1c12,0,18-4.4,18-13.2
		c0-8.8-6.1-13.2-18.2-13.2H527.4z M527.4,139.1V166h13.7c5.7,0,9.9-1.2,12.9-3.6c2.9-2.4,4.4-5.7,4.4-9.8c0-9-6.5-13.5-19.5-13.5
		H527.4z"/>
	<path class="st3" d="M605.9,103.3c9.8,0,18.1,3.3,24.9,9.9c6.8,6.6,10.2,14.6,10.2,24.1c0,9.4-3.4,17.5-10.2,24
		c-6.8,6.6-15.1,9.9-24.9,9.9c-9.8,0-18-3.3-24.8-9.9c-6.8-6.6-10.2-14.6-10.2-24c0-9.5,3.4-17.5,10.2-24.1
		C587.8,106.6,596.1,103.3,605.9,103.3z M606.1,166.4c8.2,0,15.2-2.8,20.9-8.5c5.7-5.6,8.5-12.5,8.5-20.7c0-8.2-2.8-15.1-8.5-20.8
		c-5.7-5.6-12.6-8.5-20.9-8.5c-8.3,0-15.3,2.8-21,8.5c-5.7,5.6-8.6,12.6-8.6,20.8c0,8.2,2.9,15.1,8.6,20.7
		C590.8,163.6,597.8,166.4,606.1,166.4z"/>
	<path class="st3" d="M689.7,104.1v4.3h-31v26.5h30.2v4.3h-30.2V166h31.7v4.3h-36.8v-66.2H689.7z"/>
	<path class="st3" d="M744,104.1l-31.7,33.1l34.7,33.1h-6.5l-34.6-33.1v33.1h-5.1v-66.2h5.1v32.9l31.7-32.9H744z"/>
	<path class="st3" d="M813.4,104.1v4.3h-24.8v61.9h-5.2v-61.9h-24.8v-4.3H813.4z"/>
	<path class="st3" d="M846.4,103.3c9.8,0,18.1,3.3,24.9,9.9c6.8,6.6,10.2,14.6,10.2,24.1c0,9.4-3.4,17.5-10.2,24
		c-6.8,6.6-15.1,9.9-24.9,9.9c-9.8,0-18-3.3-24.8-9.9c-6.8-6.6-10.2-14.6-10.2-24c0-9.5,3.4-17.5,10.2-24.1
		C828.4,106.6,836.7,103.3,846.4,103.3z M846.6,166.4c8.2,0,15.2-2.8,20.9-8.5c5.7-5.6,8.5-12.5,8.5-20.7c0-8.2-2.8-15.1-8.5-20.8
		c-5.7-5.6-12.6-8.5-20.9-8.5c-8.3,0-15.3,2.8-21,8.5c-5.7,5.6-8.6,12.6-8.6,20.8c0,8.2,2.9,15.1,8.6,20.7
		C831.3,163.6,838.3,166.4,846.6,166.4z"/>
	<path class="st3" d="M921.1,104.1h13.8c7.2,0,12.7,1.5,16.4,4.5s5.6,7.2,5.6,12.6c0,6.4-3.2,11.3-9.5,14.7
		c10.2,2.2,15.3,7.8,15.3,16.8c0,5.4-2,9.6-6,12.8c-4,3.2-9.4,4.8-16.2,4.8h-19.4V104.1z M926.2,108.4v26.4h7.1c12,0,18-4.4,18-13.2
		c0-8.8-6.1-13.2-18.2-13.2H926.2z M926.2,139.1V166h13.7c5.7,0,9.9-1.2,12.9-3.6c2.9-2.4,4.4-5.7,4.4-9.8c0-9-6.5-13.5-19.5-13.5
		H926.2z"/>
	<path class="st3" d="M1004.7,103.3c9.8,0,18.1,3.3,24.9,9.9c6.8,6.6,10.2,14.6,10.2,24.1c0,9.4-3.4,17.5-10.2,24
		c-6.8,6.6-15.1,9.9-24.9,9.9c-9.8,0-18-3.3-24.8-9.9c-6.8-6.6-10.2-14.6-10.2-24c0-9.5,3.4-17.5,10.2-24.1
		C986.7,106.6,995,103.3,1004.7,103.3z M1004.9,166.4c8.2,0,15.2-2.8,20.9-8.5c5.7-5.6,8.5-12.5,8.5-20.7c0-8.2-2.8-15.1-8.5-20.8
		c-5.7-5.6-12.6-8.5-20.9-8.5c-8.3,0-15.3,2.8-21,8.5c-5.7,5.6-8.6,12.6-8.6,20.8c0,8.2,2.9,15.1,8.6,20.7
		C989.6,163.6,996.6,166.4,1004.9,166.4z"/>
	<path class="st3" d="M1084.6,103.3c9.8,0,18.1,3.3,24.9,9.9c6.8,6.6,10.2,14.6,10.2,24.1c0,9.4-3.4,17.5-10.2,24
		c-6.8,6.6-15.1,9.9-24.9,9.9c-9.8,0-18-3.3-24.8-9.9c-6.8-6.6-10.2-14.6-10.2-24c0-9.5,3.4-17.5,10.2-24.1
		C1066.5,106.6,1074.8,103.3,1084.6,103.3z M1084.8,166.4c8.2,0,15.2-2.8,20.9-8.5c5.7-5.6,8.5-12.5,8.5-20.7
		c0-8.2-2.8-15.1-8.5-20.8c-5.7-5.6-12.6-8.5-20.9-8.5c-8.3,0-15.3,2.8-21,8.5c-5.7,5.6-8.6,12.6-8.6,20.8c0,8.2,2.9,15.1,8.6,20.7
		C1069.5,163.6,1076.5,166.4,1084.8,166.4z"/>
	<path class="st3" d="M1175.2,104.1l-31.7,33.1l34.7,33.1h-6.5l-34.6-33.1v33.1h-5.1v-66.2h5.1v32.9l31.7-32.9H1175.2z"/>
</g>
</svg>
